<svg width="42" height="47" viewBox="0 0 42 47" fill="none" xmlns="http://www.w3.org/2000/svg">
<path d="M27.9842 20.6087C28.3796 20.6087 28.775 20.3615 28.9233 19.9661L30.0599 16.9021C30.3071 16.2595 29.8127 15.5676 29.1208 15.5676H7.57308C4.11367 15.5676 1.24715 18.1376 0.90102 21.597L0.0116125 29.8011C-0.0873273 30.5919 0.456324 31.333 1.24715 31.531C2.13655 31.7285 3.32284 31.8771 4.50904 32.0253L5.25022 45.0726C5.29952 46.1598 6.23856 47 7.32592 47H13.6025C14.6898 47 15.5792 46.1599 15.6782 45.0726L16.8148 22.6353C16.8148 21.4987 17.7539 20.6089 18.8412 20.6089L27.9842 20.6087Z" fill="#57666C"/>
<path d="M17.3588 6.86957C17.3588 10.6634 14.2833 13.7391 10.4892 13.7391C6.6954 13.7391 3.61963 10.6634 3.61963 6.86957C3.61963 3.07577 6.6954 0 10.4892 0C14.2833 0 17.3588 3.07577 17.3588 6.86957Z" fill="#57666C"/>
<path d="M41.4269 33.656L38.0665 26.9347C37.9675 26.6875 37.7203 26.5393 37.4735 26.5393L32.8775 26.5886C32.6303 25.946 32.1856 25.4024 31.5926 25.0566V24.1672C31.5926 23.3764 30.95 22.7341 30.1596 22.7341C29.3688 22.7341 28.7265 23.3767 28.7265 24.1672V25.0566C28.1336 25.4027 27.6885 25.946 27.4417 26.5886L22.796 26.5393C22.5488 26.5393 22.3016 26.7368 22.203 26.9347L18.7922 33.656C18.6933 33.8535 18.644 34.1007 18.743 34.2986C19.3359 36.3743 20.9176 37.758 22.8449 37.758C24.7724 37.758 26.4033 36.4235 26.9469 34.2986C26.9962 34.101 26.9962 33.8538 26.8976 33.656L24.2779 28.4174H27.4409C27.6881 29.06 28.1328 29.6036 28.7257 29.9494V40.9703C28.7257 42.6506 27.4409 44.084 25.7603 44.2322L23.141 44.5287C22.8445 44.578 22.6466 44.8252 22.6466 45.0724V46.3572C22.6466 46.6537 22.8938 46.9009 23.1903 46.9009H37.0282C37.3247 46.9009 37.6212 46.6537 37.6212 46.3572V45.0724C37.6212 44.7759 37.4236 44.5287 37.1268 44.5287L34.5078 44.2322C32.8276 44.0347 31.5424 42.6506 31.5424 40.9703V29.9494C32.1353 29.6033 32.5804 29.06 32.8273 28.4174H35.9902L33.3709 33.656C33.272 33.8535 33.2227 34.1007 33.3216 34.2986C33.9145 36.3743 35.4962 37.758 37.4236 37.758C39.3509 37.758 40.9819 36.4235 41.5255 34.2986C41.5752 34.1007 41.5255 33.8538 41.4266 33.656H41.4269ZM25.0685 33.4088H20.67L22.8938 29.0596L25.0685 33.4088ZM35.1998 33.4088L37.4237 29.0596L39.6476 33.4088H35.1998Z" fill="#57666C"/>
</svg>
