<svg width="31" height="43" viewBox="0 0 31 43" fill="none" xmlns="http://www.w3.org/2000/svg">
<path d="M30.2924 0.970139H0.604809C0.242092 0.970139 0 1.21181 0 1.57495V37.1275C0 37.4902 0.241671 37.7323 0.604809 37.7323H2.29779V41.4206C2.29779 41.6622 2.41883 41.844 2.6605 41.9646C2.90217 42.0857 3.14427 42.025 3.32562 41.9043L4.95825 40.5138L6.59087 41.9043C6.71191 42.0254 6.83254 42.0254 6.95359 42.0254C7.0139 42.0254 7.13494 42.0254 7.19525 41.9651C7.43692 41.844 7.55797 41.6627 7.55797 41.421V37.7327H30.3527C30.7154 37.7327 30.9575 37.491 30.9575 37.1279V1.57429C30.8968 1.21157 30.6551 0.969482 30.2924 0.969482L30.2924 0.970139ZM2.29779 36.5227H1.20966L1.20924 2.17941H2.29736L2.29779 36.5227ZM6.28849 40.0899L5.26066 39.2435C5.01899 39.0621 4.71659 39.0621 4.47451 39.2435L3.44668 40.0899V37.7318H6.22822L6.2278 40.0899H6.28849ZM29.6879 36.5227H3.50716V2.17941H29.6879V36.5227Z" fill="white"/>
<path d="M9.37198 23.5836C10.7022 23.5836 11.7301 22.4955 11.7301 21.2255C11.7301 20.3791 10.6419 16.8118 10.1581 15.2395L14.0278 14.5141C14.2695 15.2395 14.8742 15.7841 15.5997 16.0257V26.9696H12.4555C12.0928 26.9696 11.8507 27.2113 11.8507 27.5744C11.8507 27.9371 12.0924 28.1792 12.4555 28.1792H19.9531C20.3158 28.1792 20.5579 27.9375 20.5579 27.5744C20.5579 27.2117 20.3162 26.9696 19.9531 26.9696H16.8089V15.9652C17.5343 15.7839 18.1391 15.1791 18.3808 14.4536L22.2505 15.1791C21.7667 16.8117 20.6785 20.3187 20.6785 21.1651C20.6785 22.4953 21.7064 23.5231 23.0366 23.5231C24.3668 23.5231 25.3947 22.435 25.3947 21.1651C25.3947 20.1372 23.8831 15.4211 23.6415 14.5139C23.6415 14.4536 23.5812 14.4536 23.5812 14.3928V14.3325L23.4601 14.2115H23.3998C23.3395 14.2115 23.2788 14.1512 23.2185 14.1512H23.1581L18.4416 13.3051C18.2602 12.4586 17.5951 11.8539 16.8089 11.6121V9.9795C16.8089 9.61679 16.5673 9.37469 16.2041 9.37469C15.8414 9.37469 15.5993 9.61637 15.5993 9.9795V11.6121C14.8132 11.8538 14.1481 12.4586 13.9667 13.3051L9.25054 14.2119H9.19023C9.12992 14.2119 9.06918 14.2722 9.00887 14.2722H8.94856C8.88825 14.3325 8.82751 14.3325 8.82751 14.3932V14.4536C8.82751 14.5139 8.7672 14.5139 8.7672 14.5746C8.4648 15.4814 6.89294 20.1975 6.89294 21.2258C6.95368 22.4953 8.04186 23.5839 9.37206 23.5839L9.37198 23.5836ZM24.1855 21.2255C24.1855 21.8303 23.6415 22.3744 23.0366 22.3744C22.4318 22.3744 21.8877 21.8304 21.8877 21.2255C21.8877 20.8021 22.4318 18.7464 23.0366 16.8118C23.6414 18.7464 24.1855 20.8021 24.1855 21.2255ZM16.2046 12.7001C16.8094 12.7001 17.2927 13.1838 17.2927 13.7882C17.2927 14.393 16.8089 14.8763 16.2046 14.8763C15.5998 14.8763 15.1164 14.3926 15.1164 13.7882C15.116 13.1838 15.5998 12.7001 16.2046 12.7001ZM9.37209 16.7511C9.9769 18.6862 10.521 20.7418 10.521 21.2255C10.521 21.8303 9.97693 22.3744 9.37209 22.3744C8.70697 22.3744 8.16293 21.8304 8.16293 21.2255C8.16293 20.8021 8.76732 18.6861 9.37209 16.7511Z" fill="white"/>
</svg>
