<svg width="20" height="17" viewBox="0 0 20 17" fill="none" xmlns="http://www.w3.org/2000/svg">
<path d="M5.35173 3.19999C5.35173 3.04089 5.42275 2.88821 5.54913 2.77571C5.67552 2.66321 5.84704 2.59999 6.02579 2.59999H14.1145C14.3554 2.59999 14.5779 2.71437 14.6983 2.89999C14.8187 3.08562 14.8187 3.31437 14.6983 3.49999C14.5779 3.68562 14.3554 3.79999 14.1145 3.79999H6.02579C5.84704 3.79999 5.67552 3.73678 5.54913 3.62428C5.42275 3.51178 5.35173 3.3591 5.35173 3.19999ZM16.1367 7.99999C16.1367 7.84089 16.0657 7.6882 15.9393 7.57571C15.8129 7.46321 15.6414 7.39999 15.4626 7.39999H4.67767C4.43678 7.39999 4.21426 7.51437 4.09389 7.69999C3.97352 7.88562 3.97352 8.11437 4.09389 8.29999C4.21426 8.48561 4.43679 8.59999 4.67767 8.59999H15.4626C15.6414 8.59999 15.8129 8.53678 15.9393 8.42428C16.0657 8.31178 16.1367 8.1591 16.1367 7.99999ZM5.35173 6.19999H14.7886C15.0295 6.19999 15.252 6.08562 15.3724 5.89999C15.4927 5.71437 15.4927 5.48562 15.3724 5.29999C15.252 5.11437 15.0295 4.99999 14.7886 4.99999H5.35173C5.11084 4.99999 4.88832 5.11437 4.76795 5.29999C4.64758 5.48562 4.64758 5.71437 4.76795 5.89999C4.88832 6.08562 5.11085 6.19999 5.35173 6.19999ZM12.7664 14H7.37391C7.13302 14 6.9105 14.1144 6.79013 14.3C6.66977 14.4856 6.66977 14.7144 6.79013 14.9C6.9105 15.0856 7.13303 15.2 7.37391 15.2H12.7664C13.0073 15.2 13.2298 15.0856 13.3502 14.9C13.4705 14.7144 13.4705 14.4856 13.3502 14.3C13.2298 14.1144 13.0073 14 12.7664 14ZM19.507 11V16.4C19.507 16.5591 19.436 16.7118 19.3096 16.8243C19.1832 16.9368 19.0117 17 18.8329 17H1.30736C1.12862 17 0.957089 16.9368 0.830704 16.8243C0.70432 16.7118 0.633301 16.5591 0.633301 16.4V11V10.934V10.8619L3.32954 0.661911V0.662045C3.36505 0.527713 3.45157 0.408519 3.57434 0.324409C3.69712 0.240169 3.84878 0.196239 4.00362 0.19999H16.1367C16.2915 0.19624 16.4432 0.240169 16.566 0.324409C16.6888 0.408516 16.7753 0.527713 16.8108 0.662045L19.507 10.862V10.9341V11H19.507ZM2.15668 10.4H7.37391C7.55266 10.4 7.72418 10.4632 7.85057 10.5757C7.97695 10.6882 8.04797 10.8409 8.04797 11C8.04797 11.9479 9.39609 12.2 10.0702 12.2C10.7442 12.2 12.0923 11.9479 12.0923 11C12.0923 10.8409 12.1634 10.6882 12.2897 10.5757C12.4161 10.4632 12.5877 10.4 12.7664 10.4H17.9836L15.6043 1.39999H4.53619L2.15668 10.4ZM18.1589 11.6H13.353C12.6116 14 7.52914 14 6.78767 11.6H1.98181V15.8H18.1593L18.1589 11.6Z" fill="#7E7C7C"/>
</svg>
