<svg width="18" height="19" viewBox="0 0 18 19" fill="none" xmlns="http://www.w3.org/2000/svg">
<path d="M9 0.92395C4.03749 0.92395 0 4.96144 0 9.92395C0 14.8865 4.03749 18.924 9 18.924C13.9625 18.924 18 14.8865 18 9.92395C18 4.96144 13.9625 0.92395 9 0.92395ZM9 17.7239C4.6992 17.7239 1.2 14.2247 1.2 9.92395C1.2 5.62315 4.6992 2.12395 9 2.12395C13.3008 2.12395 16.8 5.62315 16.8 9.92395C16.8 14.2247 13.3008 17.7239 9 17.7239Z" fill="#116C5A"/>
<path d="M10.155 9.44367C10.1814 9.35368 10.2 9.26075 10.2 9.16303C10.2 8.7582 9.9571 8.40779 9.60005 8.21711V3.67037C9.60005 3.36716 9.33126 3.12109 9.00005 3.12109C8.66884 3.12109 8.40005 3.36716 8.40005 3.67037V8.21711C8.043 8.40777 7.80005 8.75816 7.80005 9.16303C7.80005 9.76883 8.3383 10.2616 9.00005 10.2616C9.10679 10.2616 9.20831 10.2445 9.30661 10.2204L12.1758 12.847C12.2928 12.9541 12.4464 13.008 12.6001 13.008C12.7537 13.008 12.9073 12.9541 13.0242 12.847C13.2589 12.6322 13.2589 12.2851 13.0242 12.0703L10.155 9.44367Z" fill="#116C5A"/>
</svg>
