<svg width="19" height="18" viewBox="0 0 19 18" fill="none" xmlns="http://www.w3.org/2000/svg">
<path d="M1.1061 17.8026C1.23268 17.9289 1.40443 18 1.58349 18C1.76254 18 1.93406 17.9289 2.06064 17.8026L9.93001 9.95215L17.7994 17.8026C18.0629 18.0655 18.4904 18.0655 18.7539 17.8026C19.0175 17.5397 19.0175 17.1132 18.7539 16.8503L10.8846 8.99988L18.7539 1.14943C19.0175 0.886549 19.0175 0.460046 18.7539 0.197163C18.4904 -0.0657209 18.0629 -0.0657209 17.7994 0.197163L9.93001 8.04761L2.06064 0.197163C1.79713 -0.0657209 1.3696 -0.0657209 1.10608 0.197163C0.842562 0.460046 0.842562 0.886549 1.10608 1.14943L8.97544 8.99988L1.10608 16.8503C0.979494 16.9766 0.908203 17.1477 0.908203 17.3263C0.908203 17.505 0.979494 17.6763 1.10608 17.8026L1.1061 17.8026Z" fill="white"/>
</svg>
