<svg width="29" height="21" viewBox="0 0 29 21" fill="none" xmlns="http://www.w3.org/2000/svg">
<path d="M26.2356 0H2.76442C1.23992 0 0 1.24045 0 2.76442V18.1669C0 19.6914 1.24045 20.9313 2.76442 20.9313H26.2356C27.7601 20.9313 29 19.6909 29 18.1669V2.76442C29.0005 1.24016 27.76 0 26.2356 0ZM28.0128 18.1671C28.0128 19.1471 27.2156 19.9441 26.2358 19.9441H2.76407C1.78403 19.9441 0.987037 19.1469 0.987037 18.1671L0.987267 7.02289H28.0131L28.0128 18.1671ZM28.0128 6.03532H0.987037V2.76454C0.987037 1.7845 1.78426 0.987508 2.76407 0.987508H26.2358C27.2159 0.987508 28.0128 1.78473 28.0128 2.76454L28.0126 6.03532H28.0128ZM3.45595 10.8632H18.0502C18.3227 10.8632 18.5439 10.642 18.5439 10.3695C18.5439 10.0969 18.3227 9.87579 18.0502 9.87579H3.45595C3.18339 9.87579 2.96226 10.0969 2.96226 10.3695C2.96226 10.642 3.18339 10.8632 3.45595 10.8632ZM3.45595 13.936H8.61375C8.88631 13.936 9.10744 13.7148 9.10744 13.4423C9.10744 13.1697 8.88631 12.9486 8.61375 12.9486L3.45595 12.9484C3.18339 12.9484 2.96226 13.1695 2.96226 13.4421C2.96226 13.7146 3.18339 13.936 3.45595 13.936V13.936ZM20.6837 10.8632H25.0732C25.3458 10.8632 25.5669 10.642 25.5669 10.3695C25.5669 10.0969 25.3458 9.87579 25.0732 9.87579H20.6837C20.4111 9.87579 20.19 10.0969 20.19 10.3695C20.19 10.642 20.4111 10.8632 20.6837 10.8632Z" fill="white"/>
</svg>
