<svg width="43" height="40" viewBox="0 0 43 40" fill="none" xmlns="http://www.w3.org/2000/svg">
<path d="M29.2183 17.5984L26.8269 13.4561L24.4351 9.30884L22.0388 13.4561L19.647 17.5984H29.2183Z" fill="#57666C"/>
<path d="M15.2076 12.27L17.599 16.4123L22.3819 8.12769H12.8154L15.2076 12.27Z" fill="#57666C"/>
<path d="M29.727 19.9644H19.1362L24.434 40L29.727 19.9644Z" fill="#57666C"/>
<path d="M36.0493 8.12842H26.4829L31.2658 16.413L33.6572 12.2707L36.0493 8.12842Z" fill="#57666C"/>
<path d="M32.1796 19.9644L27.0234 39.4603L42.4876 19.9644H32.1796Z" fill="#57666C"/>
<path d="M35.7113 13.4558L33.3149 17.5982H42.8859L38.1027 9.30859L35.7113 13.4558Z" fill="#57666C"/>
<path d="M5.979 17.5984H15.5499L13.1532 13.4561L10.7618 9.30884L5.979 17.5984Z" fill="#57666C"/>
<path d="M16.6849 19.9644H6.37695L21.8411 39.4603L16.6849 19.9644Z" fill="#57666C"/>
<path d="M1.18567 5.12098H2.74965V6.68496C2.74965 7.34097 3.27932 7.87063 3.93532 7.87063C4.59132 7.87063 5.12098 7.34096 5.12098 6.68496V5.12098H6.68496C7.34097 5.12098 7.87063 4.59132 7.87063 3.93532C7.87063 3.27932 7.34096 2.74965 6.68496 2.74965H5.12098V1.18567C5.12098 0.529658 4.59132 0 3.93532 0C3.27932 0 2.74965 0.529667 2.74965 1.18567V2.74965H1.18567C0.529658 2.74965 0 3.27932 0 3.93532C0 4.59132 0.529667 5.12098 1.18567 5.12098Z" fill="#57666C"/>
</svg>
