<svg width="15" height="16" viewBox="0 0 15 16" fill="none" xmlns="http://www.w3.org/2000/svg">
<path d="M0.164759 15.5451C0.269993 15.6533 0.412776 15.7143 0.561628 15.7143C0.71048 15.7143 0.853069 15.6533 0.958302 15.5451L7.50034 8.81614L14.0424 15.5451C14.2615 15.7704 14.6169 15.7704 14.8359 15.5451C15.055 15.3198 15.055 14.9542 14.8359 14.7289L8.2939 7.99991L14.8359 1.27095C15.055 1.04562 15.055 0.680046 14.8359 0.454717C14.6169 0.229389 14.2615 0.229389 14.0424 0.454717L7.50034 7.18367L0.958302 0.454717C0.739232 0.229389 0.383814 0.229389 0.164744 0.454717C-0.0543254 0.680046 -0.0543254 1.04562 0.164744 1.27095L6.70679 7.99991L0.164744 14.7289C0.0595107 14.8371 0.000244141 14.9838 0.000244141 15.1369C0.000244141 15.29 0.0595107 15.4368 0.164744 15.5451L0.164759 15.5451Z" fill="#504B4B"/>
</svg>
