<svg width="14" height="22" viewBox="0 0 14 22" fill="none" xmlns="http://www.w3.org/2000/svg">
<path d="M6.98819 1C10.3019 1 13 3.6605 13 6.95657C13 9.99376 8.57375 16.9863 6.98819 20C5.426 16.9863 1 9.9938 1 6.95657C1 3.66039 3.69825 1 6.98819 1ZM6.98819 1.56503C4.00591 1.56503 1.56778 3.99004 1.56778 6.95682C1.56778 9.61732 5.49678 15.9741 6.98819 18.776C8.50294 15.9743 12.4086 9.61729 12.4086 6.95682C12.4086 3.99029 9.99434 1.56503 6.98819 1.56503ZM6.98819 4.60222C8.28997 4.60222 9.35514 5.66178 9.35514 6.95668C9.35514 8.25159 8.28997 9.31114 6.98819 9.31114C5.68641 9.31114 4.62123 8.25159 4.62123 6.95668C4.62123 5.66178 5.68641 4.60222 6.98819 4.60222ZM6.98819 5.19075C6.0177 5.19075 5.21303 5.96763 5.21303 6.95654C5.21303 7.94544 6.01781 8.74583 6.98819 8.74583C7.98234 8.74583 8.78697 7.9453 8.78697 6.95654C8.78697 5.96763 7.9822 5.19075 6.98819 5.19075Z" fill="#7E7C7C" stroke="#7E7C7C"/>
</svg>
