<svg width="6" height="23" viewBox="0 0 6 23" fill="none" xmlns="http://www.w3.org/2000/svg">
<path d="M0.001703 19.9436C0.000762281 21.3444 1.13544 22.4803 2.53586 22.4812C3.93665 22.4821 5.07249 21.3475 5.07343 19.947C5.07437 18.547 3.93969 17.4098 2.53927 17.4088C1.13849 17.4079 0.00264324 18.5436 0.001703 19.9436ZM0.0075482 11.2398C0.00660748 12.6406 1.14128 13.7764 2.54171 13.7774C3.94249 13.7783 5.07833 12.6436 5.07927 11.2432C5.08021 9.84314 3.94554 8.70595 2.54511 8.70501C1.14433 8.70442 0.00848844 9.83973 0.0075482 11.2398ZM0.0133932 2.53633C0.0124529 3.93639 1.14713 5.07259 2.54755 5.07353C3.94834 5.07447 5.08418 3.93979 5.08512 2.53973C5.08606 1.13967 3.95138 0.00247527 2.55096 0.00153479C1.15018 0.000594072 0.0143334 1.13626 0.0133932 2.53633Z" fill="#57666C" fill-opacity="0.71"/>
</svg>
