<svg width="57" height="56" viewBox="0 0 57 56" fill="none" xmlns="http://www.w3.org/2000/svg">
<path d="M50.9949 22.0004C50.9949 16.1655 48.6771 10.5695 44.5511 6.44378C40.4252 2.31783 34.8297 0 28.9945 0C23.1593 0 17.5636 2.31783 13.4379 6.44378C9.31197 10.5697 6.99414 16.1652 6.99414 22.0004C6.99414 27.8356 9.31197 33.4313 13.4379 37.557C17.5639 41.6829 23.1593 44.0008 28.9945 44.0008C34.8271 43.9941 40.4191 41.674 44.5431 37.5499C48.6672 33.4253 50.9874 27.8333 50.994 22.0013L50.9949 22.0004ZM8.99483 22.0004C8.99483 16.6959 11.102 11.6088 14.8529 7.85864C18.6033 4.10778 23.6904 2.00057 28.9946 2.00057C34.2989 2.00057 39.3862 4.10778 43.1364 7.85864C46.8872 11.6091 48.9944 16.6961 48.9944 22.0004C48.9944 27.3046 46.8872 32.3919 43.1364 36.1421C39.386 39.893 34.2989 42.0002 28.9946 42.0002C23.692 41.9939 18.6084 39.885 14.8598 36.1355C11.1101 32.3863 9.00123 27.3029 8.99506 22.0006L8.99483 22.0004Z" fill="#57666C"/>
<path d="M20.9608 44.6862C16.9692 43.2625 13.4219 40.8156 10.6724 37.5911L0.995605 47.067L6.87779 47.079C7.67823 47.0799 8.44568 47.3987 9.01173 47.9652C9.57736 48.5317 9.89522 49.2996 9.89567 50.1V56.0001L20.9608 44.6862Z" fill="#57666C"/>
<path d="M37.0215 44.6862L48.0786 55.9929L48.0947 50.1001C48.0943 49.2992 48.4112 48.5313 48.9764 47.964C49.542 47.3971 50.309 47.0774 51.1099 47.0752H56.9947L47.3108 37.5872C44.5621 40.8135 41.0139 43.2617 37.0215 44.6863L37.0215 44.6862Z" fill="#57666C"/>
<path d="M46.995 22.0004C46.995 17.2263 45.0985 12.6482 41.7231 9.27238C38.3472 5.89695 33.769 4.00049 28.995 4.00049C24.2211 4.00049 19.6428 5.89695 16.267 9.27238C12.8916 12.6483 10.9951 17.2265 10.9951 22.0004C10.9951 26.7744 12.8916 31.3527 16.267 34.7284C19.6429 38.1039 24.2211 40.0003 28.995 40.0003C33.7674 39.995 38.3424 38.0968 41.7173 34.7221C45.0923 31.3475 46.9902 26.7725 46.9955 21.9998L46.995 22.0004ZM22.4075 30.5004C21.8392 30.0259 21.5664 29.2843 21.6914 28.5545L22.4106 24.2465L20.4177 21.5514C19.9847 20.9741 19.8789 20.2153 20.1364 19.5415C20.3945 18.8679 20.9802 18.3732 21.6873 18.2326L25.0074 17.5697L27.1945 14.0174C27.5726 13.384 28.257 12.9973 28.9945 13.0005C29.7325 12.9978 30.4168 13.3853 30.7945 14.0197L32.9057 17.5197L36.2999 18.2295H36.2995C37.007 18.371 37.5923 18.8657 37.8499 19.5393C38.1075 20.2134 38.0008 20.9724 37.5677 21.5496L35.5945 24.1764L36.2945 28.5546C36.3962 29.1626 36.2253 29.7845 35.8275 30.2555C35.4297 30.7265 34.8449 30.9992 34.2284 31.0006C33.9927 31.0006 33.7592 30.9608 33.5364 30.8836L29.0275 29.3305L24.4535 30.8836C23.7521 31.1296 22.9726 30.9836 22.4075 30.5006L22.4075 30.5004Z" fill="#57666C"/>
<path d="M34.1885 28.9936C34.2228 29.0061 34.2612 28.9989 34.2885 28.9748L33.5996 24.5797C33.5068 24.0123 33.6496 23.4311 33.9956 22.9717L35.9738 20.3485L35.9108 20.1945L32.5867 19.5316C32.0068 19.4164 31.5019 19.0624 31.1956 18.5566L29.0858 15.0507C29.0671 15.0186 29.0327 14.9994 28.9956 15.0007C28.9586 14.9981 28.9237 15.0177 28.9068 15.0507L26.7899 18.5579C26.4841 19.0637 25.9796 19.4173 25.3997 19.5316L22.0787 20.1945L22.0166 20.3495L23.9956 22.9727C24.338 23.4307 24.4795 24.0084 24.3884 24.5727L23.6692 28.8816C23.7483 29.0084 23.7902 28.9954 23.8063 28.9887L28.3063 27.4356H28.3067C28.7514 27.2842 29.234 27.2842 29.6786 27.4356L34.1885 28.9936Z" fill="#57666C"/>
</svg>
