<svg width="13" height="16" viewBox="0 0 13 16" fill="none" xmlns="http://www.w3.org/2000/svg">
<path d="M12.4289 3.94043C10.6216 3.94043 9.15623 2.57347 9.15623 0.902559C9.15623 0.713515 8.99252 0.565018 8.7926 0.565018H3.99994C3.79629 0.565018 3.63631 0.713515 3.63631 0.902559C3.63631 2.57347 2.16724 3.94043 0.363631 3.94043C0.159975 3.94043 0 4.08892 0 4.27797V6.51928C0 10.3639 2.45096 13.8439 6.25082 15.3865C6.29432 15.4033 6.34528 15.4168 6.39623 15.4168C6.44347 15.4168 6.49442 15.4033 6.54165 15.3865C10.338 13.8508 12.7925 10.3706 12.7925 6.51928V4.27797C12.7925 4.08892 12.6289 3.94043 12.4288 3.94043H12.4289ZM9.73081 6.28642L5.54906 10.1681C5.47999 10.2323 5.38908 10.2693 5.29089 10.2693C5.1927 10.2693 5.10179 10.2323 5.03273 10.1681L3.06189 8.33871C2.92003 8.20703 2.92003 7.99095 3.06189 7.85945C3.20376 7.72776 3.43281 7.72776 3.57466 7.85945L5.29109 9.45256L9.21448 5.81049C9.35635 5.6788 9.58912 5.6788 9.73079 5.81049C9.87266 5.94218 9.87266 6.15479 9.73079 6.28646L9.73081 6.28642Z" fill="#6D992F"/>
</svg>
