<svg width="21" height="22" viewBox="0 0 21 22" fill="none" xmlns="http://www.w3.org/2000/svg">
<path d="M10.5 2.39759C13.2169 2.39759 13.5874 2.39759 14.6988 2.39759C15.6867 2.39759 16.1807 2.6506 16.5512 2.77711C17.0452 3.03012 17.4157 3.15663 17.7861 3.53615C18.1566 3.91566 18.4036 4.29518 18.5271 4.80121C18.6506 5.18072 18.7741 5.68675 18.8976 6.6988C18.8976 7.83735 18.8976 8.09036 18.8976 11C18.8976 13.9096 18.8976 14.1627 18.8976 15.3012C18.8976 16.3133 18.6506 16.8193 18.5271 17.1988C18.2801 17.7048 18.1566 18.0843 17.7861 18.4639C17.4157 18.8434 17.0452 19.0964 16.5512 19.2229C16.1807 19.3494 15.6867 19.4759 14.6988 19.6024C13.5874 19.6024 13.3404 19.6024 10.5 19.6024C7.65964 19.6024 7.41265 19.6024 6.30121 19.6024C5.31325 19.6024 4.81928 19.3494 4.4488 19.2229C3.95482 18.9699 3.58434 18.8434 3.21386 18.4639C2.84337 18.0843 2.59639 17.7048 2.47289 17.1988C2.3494 16.8193 2.2259 16.3133 2.10241 15.3012C2.10241 14.1627 2.10241 13.9096 2.10241 11C2.10241 8.09036 2.10241 7.83735 2.10241 6.6988C2.10241 5.68675 2.3494 5.18072 2.47289 4.80121C2.71988 4.29518 2.84337 3.91566 3.21386 3.53615C3.58434 3.15663 3.95482 2.90361 4.4488 2.77711C4.81928 2.6506 5.31325 2.5241 6.30121 2.39759C7.41265 2.39759 7.78313 2.39759 10.5 2.39759ZM10.5 0.5C7.65964 0.5 7.41265 0.5 6.30121 0.5C5.18976 0.5 4.4488 0.753013 3.83133 1.00602C3.21386 1.25904 2.59639 1.63855 1.97892 2.27109C1.36145 2.90362 1.11446 3.40964 0.743977 4.16868C0.496989 4.80121 0.373494 5.56024 0.25 6.6988C0.25 7.83735 0.25 8.21687 0.25 11C0.25 13.9096 0.25 14.1627 0.25 15.3012C0.25 16.4398 0.496989 17.1988 0.743977 17.8313C0.990965 18.4639 1.36145 19.0964 1.97892 19.7289C2.59639 20.3614 3.09036 20.6145 3.83133 20.994C4.4488 21.247 5.18976 21.3735 6.30121 21.5C7.41265 21.5 7.78313 21.5 10.5 21.5C13.2169 21.5 13.5874 21.5 14.6988 21.5C15.8102 21.5 16.5512 21.247 17.1687 20.994C17.7861 20.741 18.4036 20.3614 19.0211 19.7289C19.6386 19.0964 19.8855 18.5904 20.256 17.8313C20.503 17.1988 20.6265 16.4398 20.75 15.3012C20.75 14.1627 20.75 13.7831 20.75 11C20.75 8.21687 20.75 7.83735 20.75 6.6988C20.75 5.56024 20.503 4.80121 20.256 4.16868C20.009 3.53615 19.6386 2.90362 19.0211 2.27109C18.4036 1.63855 17.9096 1.38554 17.1687 1.00602C16.5512 0.753013 15.8102 0.626506 14.6988 0.5C13.5874 0.5 13.3404 0.5 10.5 0.5Z" fill="white"/>
<path d="M10.5 5.56024C7.53615 5.56024 5.18976 7.96386 5.18976 11C5.18976 14.0361 7.53615 16.4398 10.5 16.4398C13.4639 16.4398 15.8102 14.0361 15.8102 11C15.8102 7.96386 13.4639 5.56024 10.5 5.56024ZM10.5 14.5422C8.64759 14.5422 7.04217 13.0241 7.04217 11C7.04217 9.10241 8.5241 7.45783 10.5 7.45783C12.3524 7.45783 13.9578 8.9759 13.9578 11C13.9578 12.8976 12.3524 14.5422 10.5 14.5422Z" fill="white"/>
<path d="M15.9337 6.6988C16.6158 6.6988 17.1687 6.13241 17.1687 5.43374C17.1687 4.73506 16.6158 4.16868 15.9337 4.16868C15.2517 4.16868 14.6988 4.73506 14.6988 5.43374C14.6988 6.13241 15.2517 6.6988 15.9337 6.6988Z" fill="white"/>
</svg>
