<svg width="22" height="18" viewBox="0 0 22 18" fill="none" xmlns="http://www.w3.org/2000/svg">
<path d="M21.13 2.64502C20.395 2.96002 19.5551 3.17002 18.7151 3.27502C19.5551 2.75002 20.29 1.91003 20.605 0.965028C19.765 1.49003 18.925 1.80503 17.875 2.01503C17.14 1.17503 15.985 0.650024 14.83 0.650024C12.52 0.650024 10.63 2.54002 10.63 4.85002C10.63 5.16502 10.63 5.48002 10.735 5.79502C7.27005 5.58502 4.12004 3.90502 2.02004 1.38502C1.70504 2.01502 1.49504 2.75002 1.49504 3.48502C1.49504 4.95502 2.23005 6.21502 3.38505 6.95002C2.65005 6.95002 2.02004 6.74002 1.49504 6.42502C1.49504 8.42002 2.96504 10.205 4.85504 10.52C4.54004 10.625 4.12005 10.625 3.70005 10.625C3.38505 10.625 3.17505 10.625 2.86005 10.52C3.38505 12.2 4.96005 13.46 6.85005 13.46C5.38005 14.615 3.59505 15.245 1.60005 15.245C1.28505 15.245 0.970049 15.245 0.550049 15.14C2.44005 16.295 4.64505 17.03 7.06005 17.03C14.83 17.03 19.03 10.625 19.03 5.06002V4.53502C19.87 4.22002 20.605 3.48502 21.13 2.64502Z" fill="white"/>
</svg>
