<svg width="23" height="23" viewBox="0 0 23 23" fill="none" xmlns="http://www.w3.org/2000/svg">
<path d="M19.3232 3.66558C17.2488 1.59839 14.4829 0.449951 11.5634 0.449951C5.4939 0.449951 0.576828 5.34995 0.576828 11.3984C0.576828 13.3125 1.11463 15.2265 2.03659 16.8343L0.5 22.5L6.33903 20.9687C7.95244 21.8109 9.71951 22.2703 11.5634 22.2703C17.6329 22.2703 22.55 17.3703 22.55 11.3218C22.4732 8.48901 21.3976 5.73276 19.3232 3.66558ZM16.8646 15.3031C16.6341 15.9156 15.5585 16.5281 15.0207 16.6046C14.5598 16.6812 13.9451 16.6812 13.3305 16.5281C12.9463 16.375 12.4085 16.2218 11.7939 15.9156C9.02805 14.7671 7.26098 12.0109 7.10732 11.7812C6.95366 11.6281 5.95488 10.3265 5.95488 8.94839C5.95488 7.57026 6.64634 6.95776 6.87683 6.65151C7.10732 6.34526 7.41463 6.34526 7.64512 6.34526C7.79878 6.34526 8.02927 6.34526 8.18292 6.34526C8.33658 6.34526 8.56707 6.2687 8.79756 6.80464C9.02805 7.34058 9.56585 8.7187 9.64268 8.79526C9.71951 8.94839 9.71951 9.10151 9.64268 9.25464C9.56585 9.40776 9.48902 9.56089 9.33536 9.71401C9.1817 9.86714 9.02805 10.0968 8.95122 10.1734C8.79756 10.3265 8.6439 10.4796 8.79756 10.7093C8.95122 11.0156 9.48902 11.8578 10.3341 12.6234C11.4098 13.5421 12.2549 13.8484 12.5622 14.0015C12.8695 14.1546 13.0232 14.0781 13.1768 13.925C13.3305 13.7718 13.8683 13.1593 14.022 12.8531C14.1756 12.5468 14.4061 12.6234 14.6366 12.7C14.8671 12.7765 16.25 13.4656 16.4805 13.6187C16.7878 13.7718 16.9415 13.8484 17.0183 13.925C17.0951 14.1546 17.0951 14.6906 16.8646 15.3031Z" fill="white"/>
</svg>
