<svg width="49" height="44" viewBox="0 0 49 44" fill="none" xmlns="http://www.w3.org/2000/svg">
<path d="M22.1848 9.88394L28.0797 4.0323C29.0039 3.11456 29.0095 1.62113 28.0917 0.696836C27.174 -0.227456 25.6806 -0.233028 24.7563 0.684743L18.8614 6.53638C17.9371 7.45413 17.9315 8.94755 18.8493 9.87184C19.7674 10.7961 21.2605 10.8017 22.1848 9.88394Z" fill="#57666C"/>
<path d="M38.9277 11.6133C38.0099 10.689 36.5165 10.6835 35.5922 11.6012L29.6973 17.4529C28.773 18.3706 28.7675 19.8641 29.6852 20.7884C30.603 21.7126 32.0964 21.7182 33.0207 20.8004L38.9156 14.9488C39.8399 14.0311 39.8455 12.5376 38.9277 11.6133Z" fill="#57666C"/>
<path d="M35.3444 10.1856L29.3483 4.14526L22.2889 11.1528L23.9227 12.7985C23.9037 12.8279 23.884 12.8552 23.8612 12.8787C19.3212 17.5317 14.7801 22.1844 10.2308 26.8275C10.106 26.955 9.8911 26.9948 9.71694 27.0736C9.43084 27.2035 9.07459 27.2629 8.86761 27.4709C6.10641 30.2473 3.37184 33.0499 0.613735 35.8295C0.265434 36.1805 0.207035 36.5112 0.416431 36.9238C1.15795 38.3868 2.26572 39.497 3.74606 40.187C3.99381 40.3024 4.52905 40.1753 4.72705 39.9662C7.45676 37.0876 10.1527 34.1764 12.8485 31.2657C12.9943 31.1081 13.0779 30.8876 13.1695 30.6872C13.326 30.3438 13.3868 29.9205 13.626 29.6562C15.052 28.0812 16.5177 26.5422 17.97 24.9915C20.8674 21.8975 23.765 18.8025 26.7349 15.6309L28.2857 17.193L35.3444 10.1856Z" fill="#57666C"/>
<path d="M46.753 39.0644H46.7312L46.3007 39.0633C46.159 39.0585 46.0156 39.0495 45.8739 39.0405C45.0495 38.989 44.5011 38.4438 44.4417 37.6301C44.3716 36.675 43.8477 36.1653 42.8809 36.1653C36.9622 36.1594 31.0426 36.1594 25.1239 36.1653C24.1906 36.1663 23.6609 36.6877 23.5957 37.6093C23.5404 38.3992 23.059 38.9265 22.2992 39.0277C22.2457 39.0346 22.1904 39.0394 22.1341 39.0425C21.6855 39.0643 21.2343 39.0484 20.7861 39.0692C19.9866 39.2412 19.3639 39.9244 19.2492 40.7408C19.2364 40.831 19.2295 40.9219 19.2295 41.0159V41.3991C19.2295 41.4436 19.2316 41.4882 19.2343 41.5318C19.3017 42.5483 20.1479 43.351 21.1811 43.351H46.7533C47.831 43.351 48.7048 42.4771 48.7048 41.3994V41.0162C48.7048 39.9381 47.831 39.0643 46.7533 39.0643L46.753 39.0644Z" fill="#57666C"/>
</svg>
