<svg width="52" height="52" viewBox="0 0 52 52" fill="none" xmlns="http://www.w3.org/2000/svg">
<path d="M26 52C40.3594 52 52 40.3594 52 26C52 11.6406 40.3594 0 26 0C11.6406 0 0 11.6406 0 26C0 40.3594 11.6406 52 26 52Z" fill="url(#paint0_linear_168_502)"/>
<path d="M21.2333 37.9167C20.391 37.9167 20.5341 37.5986 20.2436 36.7966L17.7666 28.6446L36.8333 17.3333" fill="#C8DAEA"/>
<path d="M21.2334 37.9167C21.8834 37.9167 22.1706 37.6194 22.5334 37.2667L26.0001 33.8958L21.6758 31.2882" fill="#A9C9DD"/>
<path d="M21.6754 31.2888L32.1534 39.0301C33.3491 39.6898 34.212 39.3483 34.5099 37.92L38.7749 17.8214C39.2116 16.0706 38.1076 15.2766 36.9637 15.7959L11.9192 25.453C10.2097 26.1387 10.2197 27.0924 11.6076 27.5174L18.0346 29.5233L32.9138 20.1362C33.6162 19.7103 34.2608 19.9393 33.7317 20.4089" fill="url(#paint1_linear_168_502)"/>
<defs>
<linearGradient id="paint0_linear_168_502" x1="19.5026" y1="2.1684" x2="6.5026" y2="32.5" gradientUnits="userSpaceOnUse">
<stop stop-color="#37AEE2"/>
<stop offset="1" stop-color="#1E96C8"/>
</linearGradient>
<linearGradient id="paint1_linear_168_502" x1="22.7453" y1="27.5971" x2="25.5233" y2="36.5833" gradientUnits="userSpaceOnUse">
<stop stop-color="#EFF7FC"/>
<stop offset="1" stop-color="white"/>
</linearGradient>
</defs>
</svg>
