<svg width="47" height="43" viewBox="0 0 47 43" fill="none" xmlns="http://www.w3.org/2000/svg">
<path fill-rule="evenodd" clip-rule="evenodd" d="M46.3573 26.7946H45.4738L39.2442 14.3364C40.1282 14.2342 41.0101 13.8818 41.7947 13.5268C42.9718 12.9692 43.2159 11.3492 42.334 10.3863L42.2854 10.3357C41.7452 9.77893 40.912 9.5759 40.1761 9.93131C39.4888 10.2356 38.5075 10.5889 37.5765 10.5889C35.0627 10.5889 33.8206 7.87438 25.8786 7.41469C26.8231 6.69289 27.4413 5.54558 27.4798 4.23622C27.5407 1.86269 25.6774 -0.0629367 23.3764 0.00157502C21.263 0.0644691 19.5862 1.79677 19.5225 3.98034C19.4857 5.39062 20.1288 6.64261 21.1391 7.4134C13.1801 7.87012 11.9392 10.5889 9.42342 10.5889C8.44173 10.5889 7.50995 10.285 6.82384 9.93131C6.08789 9.62697 5.25422 9.77892 4.71455 10.3357L4.66589 10.3863C3.78192 11.3492 4.02847 12.9186 5.20518 13.5268C5.9902 13.9312 6.87414 14.2363 7.75566 14.3364L1.52615 26.7946H0.642593C0.250898 26.7946 -0.0447092 27.1492 0.00558447 27.5544C0.5457 30.7957 4.5182 33.2756 9.37393 33.2756C14.2304 33.2756 18.203 30.7949 18.7431 27.5544C18.7918 27.15 18.4982 26.7946 18.1061 26.7946H17.2221L10.9926 14.3883C15.0641 14.0337 17.2221 11.9075 20.361 11.9075V36.5181C18.6442 36.5181 17.2221 37.9862 17.2221 39.7595H13.739C12.3661 39.7595 10.9441 41.2276 10.9441 43H36.0564C36.0564 41.2276 34.6343 39.7595 32.574 39.7595H29.7778C29.7778 37.9862 28.3557 36.5181 26.6389 36.5181V11.9075C29.7778 11.9075 31.9357 14.0353 36.0073 14.3883L29.7778 26.7946H28.8942C28.5025 26.7946 28.2069 27.1492 28.2572 27.5544C28.7973 30.7957 32.7698 33.2756 37.6255 33.2756C42.482 33.2756 46.4546 30.7949 46.9947 27.5544C47.0434 27.15 46.7498 26.7946 46.3577 26.7946H46.3569H46.3573ZM32.9177 26.7946L37.6262 17.6795L42.3351 26.7946H32.9177ZM14.0825 26.7946H4.66587L9.37432 17.6795L14.0832 26.7946H14.0825Z" fill="#57666C"/>
</svg>
