<svg width="52" height="83" viewBox="0 0 52 83" fill="none" xmlns="http://www.w3.org/2000/svg">
<path d="M45.8824 22.5841V14.9542H49.9948C51.1164 14.9542 52 14.0536 52 12.932V2.07321C52 0.951652 51.1164 0 49.9948 0H2.00516C0.883603 0 0 0.951621 0 2.07321V12.932C0 14.0535 0.883649 14.9542 2.00516 14.9542H6.11757V22.5841C6.11757 27.5632 8.56459 32.1684 12.711 34.9042L22.3292 41.2937L12.711 47.6831C8.56459 50.4361 6.11757 55.0412 6.11757 60.0033V67.6332H2.00516C0.883603 67.6332 0 68.5338 0 69.6554V80.5142C0 81.6357 0.883649 82.5874 2.00516 82.5874H49.9948C51.1164 82.5874 52 81.6358 52 80.5142V69.6554C52 68.5339 51.1164 67.6332 49.9948 67.6332H45.8824V60.0033C45.8824 55.0242 43.4354 50.419 39.289 47.6831L29.6709 41.2937L39.289 34.9042C43.4354 32.1513 45.8824 27.5462 45.8824 22.5841ZM4.07947 4.07838H47.9224V10.8757H4.07947V4.07838ZM47.9224 78.5084H4.07947V71.7111H47.9224V78.5084ZM37.0467 51.0815C40.0545 53.0697 41.8048 56.4174 41.8048 60.003V67.6329H10.197V60.003C10.197 56.4003 11.9643 53.0697 14.9551 51.0815L26.0008 43.7404L37.0467 51.0815ZM37.0467 31.5053L25.9842 38.8464L14.9556 31.5053C11.9479 29.517 10.1975 26.1694 10.1975 22.5838V14.9539H41.8053V22.5838C41.8053 26.1694 40.038 29.517 37.0472 31.5053H37.0467Z" fill="#6D992F"/>
</svg>
