<svg width="53" height="52" viewBox="0 0 53 52" fill="none" xmlns="http://www.w3.org/2000/svg">
<path d="M26.4998 -1.90735e-06C41.0433 -1.90735e-06 52.8332 11.6406 52.8332 26C52.8332 40.3594 41.0433 52 26.4998 52C11.9563 52 0.166504 40.3594 0.166504 26C0.166504 11.6406 11.9563 -1.90735e-06 26.4998 -1.90735e-06Z" fill="#7F4DA0"/>
<path d="M33.5156 22.7049C33.3875 21.6776 33.0678 20.8709 32.4998 20.1564C31.7623 19.2364 30.8199 18.6854 29.4245 18.3586C28.5152 18.1408 28.1478 18.1658 27.8189 18.4624C27.5126 18.7403 27.4528 19.2974 27.6869 19.6581C27.8515 19.92 28.0415 20.0138 28.5697 20.1161C29.2731 20.2439 29.7593 20.4098 30.2015 20.6594C31.1401 21.1945 31.5772 22.0319 31.624 23.3875C31.6459 24.024 31.7016 24.2197 31.9267 24.4454C32.344 24.8581 33.0868 24.7778 33.4018 24.284C33.5174 24.0979 33.535 24.0169 33.5473 23.5847C33.5553 23.3171 33.5437 22.9188 33.5156 22.7049V22.7049Z" fill="white"/>
<path d="M37.192 23.8633C37.0066 20.7158 35.7597 18.1835 33.5282 16.4019C32.2709 15.4007 30.7512 14.7123 29.0853 14.3775C28.4751 14.2578 27.3516 14.1608 27.1588 14.2163C26.9769 14.2677 26.7197 14.4621 26.605 14.638C26.4837 14.8287 26.4564 15.2544 26.5598 15.5007C26.7268 15.9124 27.0374 16.0578 27.9072 16.133C29.2481 16.2488 30.6312 16.7139 31.6762 17.4026C32.8692 18.1866 33.8176 19.259 34.4311 20.5191C34.9612 21.6019 35.2873 23.1622 35.2782 24.5595C35.2752 25.0648 35.3543 25.3502 35.5601 25.5589C35.8708 25.8797 36.3237 25.9499 36.7234 25.7368C37.1663 25.5068 37.2699 25.103 37.192 23.8633V23.8633Z" fill="white"/>
<path d="M41.2601 35.9844C41.1977 35.8044 41.0522 35.5269 40.9483 35.3676C40.2934 34.3912 36.775 31.6726 35.0183 30.7835C34.0152 30.2747 33.272 30.1052 32.7211 30.2644C32.1287 30.4289 31.8168 30.7012 30.8241 31.9192C30.424 32.4075 30.0134 32.8649 29.9042 32.9368C29.634 33.1218 29.1039 33.2709 28.7297 33.2709C27.8617 33.2657 26.287 32.7107 25.076 31.9809C24.1353 31.4157 22.9297 30.4032 22.0045 29.4011C20.913 28.2242 20.1699 27.1861 19.5826 26.0143C18.8238 24.5086 18.6315 23.5886 18.9485 22.9154C19.0265 22.7458 19.1305 22.566 19.1772 22.5094C19.224 22.4581 19.7126 22.0623 20.253 21.6306C21.3133 20.7981 21.4848 20.6079 21.6822 20.0375C21.9317 19.3128 21.8642 18.5728 21.4796 17.8276C21.1833 17.2623 20.4089 16.0289 19.8477 15.2323C19.1045 14.184 17.2543 11.9433 16.8852 11.64C16.22 11.1056 15.3677 11.013 14.4269 11.3728C13.4344 11.7531 11.5737 13.2332 10.7785 14.2662C10.0613 15.2015 9.78593 15.8644 9.74431 16.7381C9.70796 17.4576 9.7703 17.7556 10.1549 18.6756C13.1641 25.891 17.6544 31.652 23.8235 36.2259C27.0458 38.6156 30.3876 40.4349 33.8541 41.6786C35.8758 42.4032 36.7541 42.4391 37.7884 41.8431C38.2249 41.5861 39.3059 40.4914 39.9088 39.6949C40.9067 38.3689 41.2757 37.7574 41.3796 37.2692C41.4524 36.9351 41.3952 36.3544 41.2601 35.9844V35.9844Z" fill="white"/>
<path d="M40.9341 24.5862C40.8675 22.8058 40.5639 21.3454 39.9309 19.7173C39.3059 18.1157 38.6733 17.0706 37.4787 15.657C36.3492 14.3316 35.472 13.5749 34.0807 12.7325C32.1395 11.5588 29.7773 10.7821 27.1299 10.4555C26.227 10.3413 26.0228 10.3495 25.7458 10.532C25.209 10.8776 25.2162 11.7398 25.7547 12.0803C25.9329 12.1886 26.091 12.2281 26.8132 12.3214C27.9218 12.4688 28.6347 12.6077 29.4805 12.8355C32.7975 13.7308 35.3482 15.5607 37.0535 18.2771C38.4805 20.5413 39.0729 22.8056 38.9888 25.6975C38.9596 26.6752 38.9808 26.8472 39.1322 27.0821C39.4221 27.52 40.1865 27.6066 40.5786 27.2432C40.8226 27.0218 40.8687 26.8556 40.9167 26.0188C40.9398 25.5823 40.9447 24.9379 40.9341 24.5862V24.5862Z" fill="white"/>
</svg>
