<svg width="53" height="52" viewBox="0 0 53 52" fill="none" xmlns="http://www.w3.org/2000/svg">
<path d="M26.4998 52C41.0433 52 52.8332 40.3594 52.8332 26C52.8332 11.6406 41.0433 0 26.4998 0C11.9563 0 0.166504 11.6406 0.166504 26C0.166504 40.3594 11.9563 52 26.4998 52Z" fill="#25D366"/>
<path fill-rule="evenodd" clip-rule="evenodd" d="M27.3678 40.4652H27.3614C24.7407 40.4643 22.1656 39.8151 19.8785 38.5834L11.5776 40.7333L13.7991 32.7219C12.4288 30.3772 11.7077 27.7176 11.7089 24.9928C11.7124 16.4685 18.7368 9.53333 27.3677 9.53333C31.5566 9.53511 35.4881 11.1452 38.4444 14.0675C41.4008 16.9897 43.028 20.874 43.0264 25.005C43.0229 33.5273 36.0012 40.4617 27.3678 40.4652ZM20.2631 35.7845L20.7383 36.063C22.7366 37.2338 25.0272 37.8533 27.3626 37.8541H27.3678C34.5412 37.8541 40.3796 32.0895 40.3825 25.004C40.3839 21.5704 39.0314 18.3419 36.5742 15.913C34.117 13.4841 30.8492 12.1458 27.373 12.1446C20.194 12.1446 14.3556 17.9086 14.3527 24.9936C14.3517 27.4217 15.0398 29.7863 16.3426 31.8322L16.652 32.3184L15.3372 37.0603L20.2631 35.7845ZM34.7207 28.3335C34.9936 28.4637 35.1779 28.5517 35.2566 28.6814C35.3543 28.8424 35.3543 29.6159 35.0285 30.5184C34.7023 31.4207 33.1392 32.2443 32.3874 32.3551C31.7134 32.4547 30.8604 32.4962 29.9232 32.2021C29.3549 32.0241 28.6261 31.7864 27.6927 31.3883C24.0247 29.8246 21.5459 26.3145 21.0775 25.6512C21.0446 25.6047 21.0217 25.5722 21.0089 25.5553L21.0057 25.5511C20.7987 25.2784 19.4113 23.4507 19.4113 21.5591C19.4113 19.7797 20.2966 18.847 20.7041 18.4177C20.732 18.3883 20.7577 18.3613 20.7807 18.3365C21.1393 17.9497 21.5632 17.853 21.824 17.853C22.0848 17.853 22.3459 17.8554 22.5739 17.8667C22.602 17.8681 22.6313 17.8679 22.6615 17.8678C22.8895 17.8664 23.1738 17.8648 23.4542 18.5298C23.5621 18.7858 23.7199 19.1652 23.8864 19.5654C24.2231 20.3746 24.595 21.2688 24.6605 21.3982C24.7583 21.5916 24.8235 21.8171 24.6931 22.075C24.6735 22.1137 24.6554 22.1502 24.6381 22.185C24.5402 22.3825 24.4681 22.5277 24.3019 22.7194C24.2365 22.7947 24.1689 22.876 24.1014 22.9572C23.9668 23.1191 23.8322 23.2809 23.715 23.3962C23.5191 23.5888 23.3152 23.7978 23.5434 24.1846C23.7717 24.5713 24.5569 25.8363 25.72 26.8607C26.9703 27.9618 28.057 28.4272 28.6078 28.6631C28.7154 28.7091 28.8025 28.7464 28.8664 28.778C29.2575 28.9715 29.4858 28.9391 29.714 28.6814C29.9423 28.4235 30.6921 27.5533 30.9529 27.1666C31.2137 26.78 31.4746 26.8444 31.8332 26.9733C32.1919 27.1023 34.1155 28.0368 34.5067 28.2301C34.5831 28.2679 34.6545 28.3019 34.7207 28.3335Z" fill="#FDFDFD"/>
</svg>
